HIERARCHY
ROOT Hips
{
	OFFSET -3.958830 18.904000 13.208200
	CHANNELS 6 Xposition Yposition Zposition Zrotation Yrotation Xrotation 
	JOINT LHipJoint
	{
		OFFSET 0.000000 0.000000 0.000000
		CHANNELS 3 Zrotation Yrotation Xrotation
		JOINT LeftUpLeg
		{
			OFFSET 1.800000 -1.400000 0.085000
			CHANNELS 3 Zrotation Yrotation Xrotation
			JOINT LeftLeg
			{
				OFFSET 2.215000 -6.000000 0.000000
				CHANNELS 3 Zrotation Yrotation Xrotation
				JOINT LeftFoot
				{
					OFFSET 2.500000 -6.900000 0.000000
					CHANNELS 3 Zrotation Yrotation Xrotation
					JOINT LeftToeBase
					{
						OFFSET 0.200000 -0.500000 1.950000
						CHANNELS 3 Zrotation Yrotation Xrotation
						End Site
						{
							OFFSET 0.000000 0.000000 0.000000
						}
					}
				}
			}
		}
	}
	JOINT RHipJoint
	{
		OFFSET 0.000000 0.000000 0.000000
		CHANNELS 3 Zrotation Yrotation Xrotation
		JOINT RightUpLeg
		{
			OFFSET -1.800000 -1.400000 0.085000
			CHANNELS 3 Zrotation Yrotation Xrotation
			JOINT RightLeg
			{
				OFFSET -2.215000 -6.000000 0.000000
				CHANNELS 3 Zrotation Yrotation Xrotation
				JOINT RightFoot
				{
					OFFSET -2.500000 -6.900000 0.000000
					CHANNELS 3 Zrotation Yrotation Xrotation
					JOINT RightToeBase
					{
						OFFSET -0.200000 -0.500000 1.950000
						CHANNELS 3 Zrotation Yrotation Xrotation
						End Site
						{
							OFFSET 0.000000 0.000000 0.000000
						}
					}
				}
			}
		}
	}
	JOINT LowerBack
	{
		OFFSET 0.000000 0.000000 0.000000
		CHANNELS 3 Zrotation Yrotation Xrotation
		JOINT Spine
		{
			OFFSET -0.087000 1.940000 -0.288900
			CHANNELS 3 Zrotation Yrotation Xrotation
			JOINT Spine1
			{
				OFFSET 0.000000 1.950000 0.060000
				CHANNELS 3 Zrotation Yrotation Xrotation
				JOINT Neck
				{
					OFFSET 0.000000 0.000000 0.000000
					CHANNELS 3 Zrotation Yrotation Xrotation
					JOINT Neck1
					{
						OFFSET 0.000000 1.600000 0.340000
						CHANNELS 3 Zrotation Yrotation Xrotation
						JOINT Head
						{
							OFFSET 0.000000 1.667000 -0.240000
							CHANNELS 3 Zrotation Yrotation Xrotation
							End Site
							{
								OFFSET 0.000000 0.000000 0.000000
							}
						}
					}
				}
				JOINT LeftShoulder
				{
					OFFSET 0.000000 0.000000 0.000000
					CHANNELS 3 Zrotation Yrotation Xrotation
					JOINT LeftArm
					{
						OFFSET 2.700000 1.550000 -0.730000
						CHANNELS 3 Zrotation Yrotation Xrotation
						JOINT LeftForeArm
						{
							OFFSET 5.450000 0.000000 0.000000
							CHANNELS 3 Zrotation Yrotation Xrotation
							JOINT LeftHand
							{
								OFFSET 3.450000 0.000000 0.000000
								CHANNELS 3 Zrotation Yrotation Xrotation
								JOINT LeftHandIndex1
								{
									OFFSET 0.750000 0.000000 0.000000
									CHANNELS 3 Zrotation Yrotation Xrotation
									End Site
									{
										OFFSET 0.000000 0.000000 0.000000
									}
								}
							}
						}
					}
				}
				JOINT RightShoulder
				{
					OFFSET 0.000000 0.000000 0.000000
					CHANNELS 3 Zrotation Yrotation Xrotation
					JOINT RightArm
					{
						OFFSET -2.700000 1.550000 -0.730000
						CHANNELS 3 Zrotation Yrotation Xrotation
						JOINT RightForeArm
						{
							OFFSET -5.450000 0.000000 0.000000
							CHANNELS 3 Zrotation Yrotation Xrotation
							JOINT RightHand
							{
								OFFSET -3.450000 0.000000 0.000000
								CHANNELS 3 Zrotation Yrotation Xrotation
								JOINT RightHandIndex1
								{
									OFFSET -0.750000 0.000000 0.000000
									CHANNELS 3 Zrotation Yrotation Xrotation
									End Site
									{
										OFFSET 0.000000 0.000000 0.000000
									}
								}
							}
						}
					}
				}
			}
		}
	}
}
MOTION
Frames: 9
Frame Time: 0.016667
-1.016920 17.965010 2.650570 -8.920430 -14.913193 -9.102832 -15.280097 11.907398 4.130694 27.613125 3.510825 -20.396949 -21.195246 14.415479 21.797492 -0.230691 8.930581 1.550432 -0.032060 0.017660 -0.708510 18.382759 -10.779324 2.129157 -3.588701 2.602304 -0.239482 6.098739 -8.971128 34.837196 -0.699313 -7.168527 2.202761 0.245390 1.374110 0.262040 -3.578861 -0.231057 -7.842102 11.872646 0.337837 18.727631 -8.085534 5.080567 21.095195 9.316913 -6.041373 -9.355281 -9.497527 8.598099 32.379279 -0.877380 1.295630 -2.711890 7.317862 -17.891745 7.633765 -2.327980 -15.809586 -4.105324 119.129178 -36.195401 -67.974282 -4.471914 2.790852 0.170600 0.787860 -0.566120 0.475500 -24.382021 25.845025 -3.611185 -37.271754 37.920948 -15.297470 -17.756274 10.713594 -3.152031 1.842655 -1.607830 -0.518090 0.793480 0.530130 0.225230 
-1.045450 17.942930 2.607350 -8.735017 -15.840715 -9.541413 -15.245744 11.894398 4.090964 27.695447 3.371010 -20.297859 -20.721875 14.512580 22.635197 -0.262882 8.985551 1.508197 0.001860 0.042270 -0.669570 18.414926 -10.849218 2.123084 -3.579312 2.330184 0.000174 5.661326 -8.847123 34.688239 -0.700035 -7.163698 2.174414 0.271680 1.351130 0.284630 -3.680846 -0.103484 -7.790678 12.517258 0.601537 18.553832 -7.676298 4.934335 21.210496 8.832637 -6.180984 -8.991485 -9.750069 8.757514 32.149239 -1.205500 1.397630 -3.056200 8.383678 -18.084501 6.980980 -1.094310 -17.318388 -4.605938 110.456571 -38.608216 -61.111584 -4.468283 2.738247 0.169350 0.790620 -0.563830 0.460430 -24.568339 25.959670 -3.739599 -36.500595 38.535544 -14.901253 -17.881084 11.464180 -3.237543 1.821266 -1.657555 -0.508220 0.765280 0.526100 0.207850 
-1.070150 17.920350 2.566430 -8.733415 -16.660784 -9.734636 -15.173921 11.821889 4.060813 27.793395 3.124643 -20.392668 -20.225551 14.582048 23.477408 -0.289845 9.047765 1.466367 0.001650 0.017270 -0.641260 18.484137 -10.960987 2.136235 -3.281147 2.212654 -0.335432 5.049024 -8.750399 35.163271 -0.707750 -7.200285 2.121755 0.264690 1.336170 0.332990 -3.899678 0.202144 -7.750056 13.816209 0.748829 17.880933 -7.646506 4.652929 21.083208 8.407576 -5.947849 -8.653761 -9.339932 8.820800 32.845140 -2.149840 1.857900 -2.717620 9.045016 -18.775036 6.333873 0.453717 -18.884241 -5.058621 99.670233 -40.459416 -52.106869 -4.468548 2.683107 0.170420 0.807900 -0.557630 0.435820 -24.418284 26.059945 -3.792653 -34.537341 39.895802 -14.312720 -18.894355 12.509059 -3.543827 1.809904 -1.709607 -0.497370 0.719090 0.541320 0.187350 
-1.091910 17.895130 2.527740 -8.693904 -17.338239 -9.853548 -15.086088 11.741068 4.046472 27.825648 2.753368 -20.517189 -19.882443 14.591856 24.128828 -0.302255 9.081077 1.453468 -0.006320 -0.021560 -0.612370 18.566916 -11.079659 2.147458 -2.846543 2.135317 -0.952563 4.135813 -8.590365 36.019249 -0.718267 -7.227305 2.098017 0.240030 1.325430 0.359510 -4.164022 0.515419 -7.717155 15.407922 0.819922 17.091954 -7.899308 4.367959 20.684560 7.774329 -5.546730 -8.423716 -8.802566 8.655972 34.109890 -2.792100 2.174550 -2.190450 9.796876 -19.703666 5.639877 1.982448 -20.837976 -5.441439 86.098754 -41.326782 -41.352111 -4.440078 2.650724 0.184440 0.816100 -0.551000 0.420510 -24.043676 26.047530 -3.520965 -31.850470 40.253588 -13.134060 -20.844609 16.000582 -4.138005 1.784523 -1.753382 -0.496400 0.691660 0.545550 0.166620 
-1.110490 17.877410 2.487800 -8.690777 -17.822658 -10.183229 -14.968989 11.665205 3.992057 27.719011 2.283522 -20.592240 -19.175240 14.525902 25.099974 -0.326175 9.087324 1.451065 -0.041100 -0.075560 -0.614940 18.671652 -11.241342 2.171574 -2.424629 2.011165 -1.450801 3.172179 -8.480215 37.069974 -0.727108 -7.299893 2.071945 0.209970 1.329390 0.367400 -4.505454 0.895686 -7.667034 17.638504 0.611698 16.479638 -8.926681 3.985594 20.329756 7.225190 -5.252923 -8.232023 -8.478446 8.504391 35.421800 -3.277380 2.390300 -1.516690 10.306124 -20.825568 4.945963 3.952231 -22.837257 -5.735451 70.043833 -39.834117 -29.664439 -4.443990 2.706184 0.193240 0.830430 -0.558270 0.400410 -23.630449 26.135535 -3.190127 -29.640170 40.079203 -11.975581 -22.234767 19.787625 -4.666916 1.748267 -1.765723 -0.508850 0.680130 0.566070 0.151230 
-1.131200 17.861470 2.448020 -8.567191 -18.235042 -10.383965 -14.870301 11.588222 3.927481 27.448204 1.811040 -20.742425 -18.549695 14.442277 25.929053 -0.329889 9.106722 1.471588 -0.112370 -0.158760 -0.649000 18.762268 -11.393331 2.179824 -2.178775 1.943940 -2.147678 2.320415 -8.395790 38.146559 -0.711836 -7.396345 2.041249 0.174570 1.384300 0.372500 -4.803862 1.263456 -7.589527 19.601294 0.531802 15.578899 -9.807519 3.685475 20.073044 6.670230 -4.915733 -7.945314 -8.024335 8.313280 36.282787 -3.714610 2.595870 -0.024930 11.123722 -21.701477 4.238752 5.664292 -25.840315 -5.181944 54.388217 -34.700660 -19.333296 -4.529354 2.805630 0.158770 0.880130 -0.597040 0.384600 -23.471436 25.991626 -3.055061 -27.354061 40.333676 -10.605129 -22.903098 22.611687 -5.053663 1.718180 -1.768820 -0.533470 0.688500 0.601960 0.154610 
-1.149410 17.849270 2.412160 -8.359202 -18.678239 -10.693875 -14.781944 11.550646 3.855109 27.042413 1.364249 -20.700752 -17.930684 14.275356 26.632733 -0.345368 9.028522 1.482004 -0.115270 -0.165310 -0.607500 18.832399 -11.547418 2.191630 -2.161070 1.817831 -2.613214 1.692274 -8.361407 38.894389 -0.729465 -7.436031 2.011984 0.161140 1.338300 0.373220 -5.049114 1.575717 -7.527361 21.250199 0.371516 15.000360 -10.652834 3.331849 19.762858 6.229052 -4.424356 -7.776435 -7.285868 8.042218 37.625827 -4.391650 3.180860 -0.169340 11.372134 -22.770778 3.760032 9.085228 -27.777522 -4.318840 40.263593 -28.059311 -11.394045 -4.563329 2.857918 0.168750 0.867080 -0.571660 0.354690 -22.910985 26.040005 -2.933384 -25.799163 40.718048 -9.763289 -23.148635 24.794844 -5.271987 1.712769 -1.752182 -0.523480 0.664250 0.593740 0.132810 
-1.168230 17.836360 2.382560 -8.250094 -19.169009 -10.765699 -14.710280 11.509441 3.803490 26.715893 1.020797 -20.977164 -17.228671 14.192868 27.578749 -0.368095 9.009271 1.480181 -0.118780 -0.186020 -0.577360 18.893981 -11.667164 2.205234 -1.995455 1.752142 -3.133837 1.079954 -8.272647 39.509209 -0.748234 -7.450769 1.991641 0.145330 1.310590 0.377780 -5.262620 1.848214 -7.474230 22.903125 0.151165 14.247131 -11.547240 3.014060 19.388863 5.875129 -4.099510 -7.751219 -6.859466 7.858127 39.122713 -4.672180 3.472030 -0.269080 11.734982 -23.354221 3.657485 11.033302 -29.247700 -2.982866 30.593261 -21.700021 -6.941796 -4.595416 2.830082 0.201750 0.850740 -0.547660 0.338240 -22.613950 25.781016 -2.933167 -24.045874 41.320114 -8.841886 -23.500619 26.850532 -5.534365 1.698736 -1.724657 -0.528890 0.654670 0.591060 0.113110 
-1.185480 17.828060 2.350470 -8.208468 -19.812187 -10.943986 -14.647813 11.483808 3.753350 26.468186 0.838051 -21.134432 -16.533341 14.132176 28.446160 -0.391986 8.949157 1.470102 -0.084410 -0.169570 -0.506870 18.943739 -11.771190 2.234731 -1.828946 1.756805 -3.438493 0.697944 -8.202156 39.968769 -0.781636 -7.430693 1.982905 0.139580 1.220760 0.357510 -5.447151 2.088845 -7.444856 24.620995 -0.132020 13.822045 -12.489560 2.782706 19.163422 5.715941 -4.012102 -8.016128 -6.900798 7.765873 41.122055 -4.890320 3.743450 -1.007720 11.903103 -23.788145 3.977582 12.150319 -29.338920 -1.937113 24.516116 -18.006877 -4.719269 -4.553206 2.775232 0.263820 0.786650 -0.498750 0.313630 -22.478309 25.684435 -2.941833 -22.147382 41.397627 -7.962823 -24.031790 28.850408 -5.851193 1.699920 -1.691590 -0.523590 0.632460 0.561630 0.074130 
